<svg width="45" height="12" viewBox="0 0 45 12" fill="none" xmlns="http://www.w3.org/2000/svg">
<path d="M2.85045 11H0.741078L4.58163 0.0909088H7.02126L10.8671 11H8.75777L5.84406 2.32812H5.75883L2.85045 11ZM2.9197 6.72266H8.67254V8.31001H2.9197V6.72266ZM12.304 11V0.0909088H14.2323V4.17116H14.3122C14.4116 3.9723 14.5519 3.76101 14.733 3.53729C14.9141 3.31001 15.1591 3.11648 15.4681 2.95668C15.777 2.79332 16.1712 2.71165 16.6506 2.71165C17.2827 2.71165 17.8527 2.87322 18.3605 3.19638C18.8718 3.51598 19.2767 3.99006 19.575 4.61861C19.8768 5.24361 20.0277 6.01065 20.0277 6.91974C20.0277 7.81818 19.8804 8.58168 19.5856 9.21023C19.2909 9.83878 18.8896 10.3182 18.3818 10.6484C17.874 10.9787 17.2987 11.1438 16.6559 11.1438C16.1872 11.1438 15.7983 11.0657 15.4894 10.9094C15.1804 10.7532 14.9319 10.565 14.7437 10.3448C14.559 10.1211 14.4152 9.9098 14.3122 9.71094H14.2003V11H12.304ZM14.195 6.90909C14.195 7.43821 14.2696 7.90163 14.4187 8.29936C14.5714 8.69709 14.7898 9.00781 15.0739 9.23153C15.3616 9.4517 15.7096 9.56179 16.1179 9.56179C16.5441 9.56179 16.901 9.44815 17.1886 9.22088C17.4763 8.99006 17.6929 8.67578 17.8385 8.27805C17.9876 7.87678 18.0622 7.42045 18.0622 6.90909C18.0622 6.40128 17.9894 5.95028 17.8438 5.55611C17.6982 5.16193 17.4816 4.85298 17.1939 4.62926C16.9063 4.40554 16.5476 4.29368 16.1179 4.29368C15.706 4.29368 15.3562 4.40199 15.0686 4.61861C14.7809 4.83523 14.5625 5.13885 14.4134 5.52947C14.2678 5.9201 14.195 6.37997 14.195 6.90909ZM25.2359 11.1598C24.4369 11.1598 23.7445 10.984 23.1585 10.6325C22.5726 10.2809 22.118 9.78906 21.7949 9.15696C21.4753 8.52486 21.3155 7.78622 21.3155 6.94105C21.3155 6.09588 21.4753 5.35547 21.7949 4.71982C22.118 4.08416 22.5726 3.59055 23.1585 3.23899C23.7445 2.88743 24.4369 2.71165 25.2359 2.71165C26.0349 2.71165 26.7274 2.88743 27.3133 3.23899C27.8993 3.59055 28.3521 4.08416 28.6717 4.71982C28.9948 5.35547 29.1564 6.09588 29.1564 6.94105C29.1564 7.78622 28.9948 8.52486 28.6717 9.15696C28.3521 9.78906 27.8993 10.2809 27.3133 10.6325C26.7274 10.984 26.0349 11.1598 25.2359 11.1598ZM25.2466 9.61506C25.6798 9.61506 26.042 9.49609 26.3332 9.25817C26.6244 9.01669 26.841 8.69354 26.9831 8.28871C27.1287 7.88388 27.2015 7.43288 27.2015 6.93572C27.2015 6.43501 27.1287 5.98224 26.9831 5.57741C26.841 5.16903 26.6244 4.84411 26.3332 4.60263C26.042 4.36115 25.6798 4.24041 25.2466 4.24041C24.8027 4.24041 24.4334 4.36115 24.1386 4.60263C23.8474 4.84411 23.629 5.16903 23.4834 5.57741C23.3414 5.98224 23.2704 6.43501 23.2704 6.93572C23.2704 7.43288 23.3414 7.88388 23.4834 8.28871C23.629 8.69354 23.8474 9.01669 24.1386 9.25817C24.4334 9.49609 24.8027 9.61506 25.2466 9.61506ZM36.0079 7.55895V2.81818H37.9361V11H36.0665V9.54581H35.9812C35.7966 10.0039 35.4929 10.3786 35.0704 10.6697C34.6513 10.9609 34.1346 11.1065 33.5203 11.1065C32.9841 11.1065 32.51 10.9876 32.0981 10.7496C31.6897 10.5082 31.3701 10.1584 31.1392 9.70028C30.9084 9.23864 30.793 8.68111 30.793 8.0277V2.81818H32.7213V7.7294C32.7213 8.24787 32.8633 8.6598 33.1474 8.9652C33.4315 9.2706 33.8044 9.4233 34.266 9.4233C34.5501 9.4233 34.8253 9.35405 35.0917 9.21555C35.358 9.07706 35.5764 8.87109 35.7468 8.59766C35.9209 8.32067 36.0079 7.97443 36.0079 7.55895ZM44.0046 2.81818V4.30966H39.3011V2.81818H44.0046ZM40.4623 0.857954H42.3906V8.53906C42.3906 8.7983 42.4296 8.99716 42.5078 9.13565C42.5894 9.2706 42.696 9.36293 42.8274 9.41264C42.9588 9.46236 43.1044 9.48722 43.2642 9.48722C43.3849 9.48722 43.495 9.47834 43.5944 9.46058C43.6974 9.44283 43.7755 9.42685 43.8288 9.41264L44.1537 10.9201C44.0507 10.9556 43.9034 10.9947 43.7116 11.0373C43.5234 11.0799 43.2926 11.1048 43.0191 11.1119C42.5362 11.1261 42.1012 11.0533 41.7141 10.8935C41.327 10.7301 41.0198 10.478 40.7926 10.1371C40.5688 9.79616 40.4588 9.37003 40.4623 8.85866V0.857954Z" fill="white"/>
</svg>
