<svg width="58" height="13" viewBox="0 0 58 13" fill="none" xmlns="http://www.w3.org/2000/svg">
<path d="M9.87318 4.77166H7.88099C7.82417 4.44496 7.71942 4.15554 7.56672 3.90341C7.41402 3.64773 7.22403 3.43111 6.99676 3.25355C6.76949 3.07599 6.51025 2.94283 6.21906 2.85405C5.93142 2.76172 5.62069 2.71555 5.28689 2.71555C4.69385 2.71555 4.16828 2.8647 3.71018 3.163C3.25209 3.45774 2.89342 3.89098 2.63419 4.46271C2.37496 5.03089 2.24534 5.72514 2.24534 6.54545C2.24534 7.37997 2.37496 8.0831 2.63419 8.65483C2.89697 9.22301 3.25564 9.6527 3.71018 9.94389C4.16828 10.2315 4.69207 10.3754 5.28156 10.3754C5.60827 10.3754 5.91366 10.3327 6.19775 10.2475C6.4854 10.1587 6.74285 10.0291 6.97013 9.85866C7.20095 9.68821 7.39449 9.47869 7.55074 9.23011C7.71054 8.98153 7.82062 8.69744 7.88099 8.37784L9.87318 8.38849C9.79861 8.90696 9.63703 9.39347 9.38845 9.84801C9.14342 10.3026 8.82204 10.7038 8.42432 11.0518C8.02659 11.3963 7.56139 11.6662 7.02872 11.8615C6.49605 12.0533 5.90479 12.1491 5.25493 12.1491C4.29612 12.1491 3.4403 11.9272 2.68746 11.4833C1.93461 11.0394 1.34158 10.3984 0.908336 9.56037C0.475098 8.7223 0.258478 7.71733 0.258478 6.54545C0.258478 5.37003 0.476873 4.36506 0.913663 3.53054C1.35045 2.69247 1.94527 2.05149 2.69811 1.6076C3.45095 1.16371 4.30322 0.941761 5.25493 0.941761C5.86217 0.941761 6.4268 1.02699 6.94882 1.19744C7.47084 1.3679 7.93604 1.61825 8.34442 1.94851C8.7528 2.27521 9.08838 2.67649 9.35116 3.15234C9.6175 3.62464 9.7915 4.16442 9.87318 4.77166ZM15.1666 12.1598C14.3676 12.1598 13.6751 11.984 13.0892 11.6325C12.5032 11.2809 12.0487 10.7891 11.7255 10.157C11.4059 9.52486 11.2461 8.78622 11.2461 7.94105C11.2461 7.09588 11.4059 6.35547 11.7255 5.71982C12.0487 5.08416 12.5032 4.59055 13.0892 4.23899C13.6751 3.88743 14.3676 3.71165 15.1666 3.71165C15.9656 3.71165 16.6581 3.88743 17.244 4.23899C17.8299 4.59055 18.2827 5.08416 18.6023 5.71982C18.9255 6.35547 19.087 7.09588 19.087 7.94105C19.087 8.78622 18.9255 9.52486 18.6023 10.157C18.2827 10.7891 17.8299 11.2809 17.244 11.6325C16.6581 11.984 15.9656 12.1598 15.1666 12.1598ZM15.1772 10.6151C15.6105 10.6151 15.9727 10.4961 16.2639 10.2582C16.5551 10.0167 16.7717 9.69354 16.9138 9.28871C17.0593 8.88388 17.1321 8.43288 17.1321 7.93572C17.1321 7.43501 17.0593 6.98224 16.9138 6.57741C16.7717 6.16903 16.5551 5.84411 16.2639 5.60263C15.9727 5.36115 15.6105 5.24041 15.1772 5.24041C14.7334 5.24041 14.364 5.36115 14.0693 5.60263C13.7781 5.84411 13.5597 6.16903 13.4141 6.57741C13.2721 6.98224 13.201 7.43501 13.201 7.93572C13.201 8.43288 13.2721 8.88388 13.4141 9.28871C13.5597 9.69354 13.7781 10.0167 14.0693 10.2582C14.364 10.4961 14.7334 10.6151 15.1772 10.6151ZM22.6519 7.20597V12H20.7237V3.81818H22.5667V5.20845H22.6626C22.8508 4.75035 23.1509 4.38636 23.5628 4.11648C23.9783 3.84659 24.4914 3.71165 25.1022 3.71165C25.6669 3.71165 26.1587 3.83239 26.5777 4.07386C27.0003 4.31534 27.327 4.66513 27.5578 5.12322C27.7922 5.58132 27.9076 6.13707 27.9041 6.79048V12H25.9758V7.08878C25.9758 6.5419 25.8338 6.11399 25.5497 5.80504C25.2691 5.49609 24.8803 5.34162 24.3831 5.34162C24.0458 5.34162 23.7457 5.41619 23.4829 5.56534C23.2237 5.71094 23.0195 5.92223 22.8703 6.19922C22.7247 6.47621 22.6519 6.81179 22.6519 7.20597ZM33.9499 3.81818V5.30966H29.2464V3.81818H33.9499ZM30.4076 1.85795H32.3359V9.53906C32.3359 9.7983 32.375 9.99716 32.4531 10.1357C32.5348 10.2706 32.6413 10.3629 32.7727 10.4126C32.9041 10.4624 33.0497 10.4872 33.2095 10.4872C33.3302 10.4872 33.4403 10.4783 33.5397 10.4606C33.6427 10.4428 33.7208 10.4268 33.7741 10.4126L34.099 11.9201C33.996 11.9556 33.8487 11.9947 33.6569 12.0373C33.4687 12.0799 33.2379 12.1048 32.9644 12.1119C32.4815 12.1261 32.0465 12.0533 31.6594 11.8935C31.2723 11.7301 30.9652 11.478 30.7379 11.1371C30.5142 10.7962 30.4041 10.37 30.4076 9.85866V1.85795ZM37.9169 12.1651C37.3985 12.1651 36.9315 12.0728 36.516 11.8881C36.1041 11.6999 35.7774 11.4229 35.5359 11.0572C35.298 10.6914 35.179 10.2404 35.179 9.70419C35.179 9.24254 35.2642 8.8608 35.4347 8.55895C35.6052 8.2571 35.8378 8.01562 36.1325 7.83452C36.4272 7.65341 36.7593 7.51669 37.1286 7.42436C37.5015 7.32848 37.8868 7.25923 38.2845 7.21662C38.7639 7.1669 39.1527 7.12251 39.451 7.08345C39.7493 7.04084 39.966 6.97692 40.1009 6.89169C40.2394 6.80291 40.3086 6.66619 40.3086 6.48153V6.44957C40.3086 6.0483 40.1897 5.73757 39.9517 5.5174C39.7138 5.29723 39.3711 5.18714 38.9237 5.18714C38.4514 5.18714 38.0767 5.29013 37.7998 5.49609C37.5263 5.70206 37.3417 5.94531 37.2458 6.22585L35.4454 5.97017C35.5874 5.47301 35.8218 5.05753 36.1485 4.72372C36.4752 4.38636 36.8747 4.13423 37.347 3.96733C37.8193 3.79688 38.3413 3.71165 38.913 3.71165C39.3072 3.71165 39.6996 3.75781 40.0902 3.85014C40.4809 3.94247 40.8378 4.09517 41.1609 4.30824C41.4841 4.51776 41.7433 4.80362 41.9386 5.16584C42.1375 5.52805 42.2369 5.98082 42.2369 6.52415V12H40.3832V10.8761H40.3193C40.2021 11.1033 40.037 11.3164 39.8239 11.5153C39.6144 11.7106 39.3498 11.8686 39.0302 11.9893C38.7142 12.1065 38.3431 12.1651 37.9169 12.1651ZM38.4177 10.7482C38.8047 10.7482 39.1403 10.6719 39.4244 10.5192C39.7085 10.3629 39.9269 10.157 40.0796 9.90128C40.2358 9.6456 40.314 9.36683 40.314 9.06499V8.10085C40.2536 8.15057 40.1506 8.19673 40.005 8.23935C39.863 8.28196 39.7032 8.31925 39.5256 8.35121C39.3481 8.38317 39.1723 8.41158 38.9983 8.43643C38.8243 8.46129 38.6733 8.4826 38.5455 8.50035C38.2579 8.53942 38.0004 8.60334 37.7731 8.69212C37.5459 8.78089 37.3665 8.90518 37.2351 9.06499C37.1037 9.22124 37.038 9.42365 37.038 9.67223C37.038 10.0273 37.1677 10.2955 37.4269 10.4766C37.6861 10.6577 38.0164 10.7482 38.4177 10.7482ZM47.7447 12.1598C46.928 12.1598 46.2266 11.9805 45.6407 11.6218C45.0583 11.2631 44.6091 10.7678 44.293 10.1357C43.9805 9.5 43.8243 8.76847 43.8243 7.94105C43.8243 7.11009 43.9841 6.37678 44.3037 5.74112C44.6233 5.10192 45.0743 4.60476 45.6566 4.24964C46.2426 3.89098 46.9351 3.71165 47.7341 3.71165C48.3981 3.71165 48.9858 3.83416 49.4972 4.07919C50.0121 4.32067 50.4223 4.66335 50.7277 5.10724C51.0331 5.54759 51.2071 6.0625 51.2497 6.65199H49.4066C49.3321 6.25781 49.1545 5.92933 48.874 5.66655C48.597 5.40021 48.2259 5.26705 47.7607 5.26705C47.3665 5.26705 47.0203 5.37358 46.722 5.58665C46.4237 5.79616 46.1911 6.09801 46.0242 6.49219C45.8608 6.88636 45.7792 7.35866 45.7792 7.90909C45.7792 8.46662 45.8608 8.94602 46.0242 9.3473C46.1875 9.74503 46.4166 10.0522 46.7113 10.2688C47.0096 10.4819 47.3594 10.5884 47.7607 10.5884C48.0448 10.5884 48.2987 10.5352 48.5224 10.4286C48.7497 10.3185 48.9397 10.1605 49.0924 9.95455C49.2451 9.74858 49.3498 9.49822 49.4066 9.20348H51.2497C51.2035 9.78232 51.0331 10.2955 50.7383 10.7429C50.4436 11.1868 50.0423 11.5348 49.5345 11.7869C49.0267 12.0355 48.4301 12.1598 47.7447 12.1598ZM56.9186 3.81818V5.30966H52.2152V3.81818H56.9186ZM53.3764 1.85795H55.3046V9.53906C55.3046 9.7983 55.3437 9.99716 55.4218 10.1357C55.5035 10.2706 55.61 10.3629 55.7414 10.4126C55.8728 10.4624 56.0184 10.4872 56.1782 10.4872C56.299 10.4872 56.409 10.4783 56.5085 10.4606C56.6115 10.4428 56.6896 10.4268 56.7429 10.4126L57.0678 11.9201C56.9648 11.9556 56.8174 11.9947 56.6257 12.0373C56.4375 12.0799 56.2066 12.1048 55.9332 12.1119C55.4502 12.1261 55.0152 12.0533 54.6282 11.8935C54.2411 11.7301 53.9339 11.478 53.7066 11.1371C53.4829 10.7962 53.3728 10.37 53.3764 9.85866V1.85795Z" fill="white"/>
</svg>
