<svg width="62" height="13" viewBox="0 0 62 13" fill="none" xmlns="http://www.w3.org/2000/svg">
<path d="M0.382147 12V1.09091H4.47306C5.31112 1.09091 6.01425 1.24716 6.58243 1.55966C7.15416 1.87216 7.58563 2.30185 7.87682 2.84872C8.17156 3.39205 8.31894 4.00994 8.31894 4.70241C8.31894 5.40199 8.17156 6.02344 7.87682 6.56676C7.58208 7.11009 7.14706 7.538 6.57178 7.8505C5.99649 8.15945 5.28804 8.31392 4.44642 8.31392H1.73513V6.68928H4.18009C4.67014 6.68928 5.07142 6.60405 5.38392 6.43359C5.69642 6.26314 5.92725 6.02876 6.07639 5.73047C6.22909 5.43217 6.30544 5.08949 6.30544 4.70241C6.30544 4.31534 6.22909 3.97443 6.07639 3.67969C5.92725 3.38494 5.69465 3.15589 5.3786 2.99254C5.0661 2.82564 4.66304 2.74219 4.16943 2.74219H2.35835V12H0.382147ZM13.4019 12.1598C12.6029 12.1598 11.9105 11.984 11.3245 11.6325C10.7386 11.2809 10.284 10.7891 9.96089 10.157C9.64129 9.52486 9.48149 8.78622 9.48149 7.94105C9.48149 7.09588 9.64129 6.35547 9.96089 5.71982C10.284 5.08416 10.7386 4.59055 11.3245 4.23899C11.9105 3.88743 12.6029 3.71165 13.4019 3.71165C14.2009 3.71165 14.8934 3.88743 15.4794 4.23899C16.0653 4.59055 16.5181 5.08416 16.8377 5.71982C17.1608 6.35547 17.3224 7.09588 17.3224 7.94105C17.3224 8.78622 17.1608 9.52486 16.8377 10.157C16.5181 10.7891 16.0653 11.2809 15.4794 11.6325C14.8934 11.984 14.2009 12.1598 13.4019 12.1598ZM13.4126 10.6151C13.8458 10.6151 14.2081 10.4961 14.4992 10.2582C14.7904 10.0167 15.0071 9.69354 15.1491 9.28871C15.2947 8.88388 15.3675 8.43288 15.3675 7.93572C15.3675 7.43501 15.2947 6.98224 15.1491 6.57741C15.0071 6.16903 14.7904 5.84411 14.4992 5.60263C14.2081 5.36115 13.8458 5.24041 13.4126 5.24041C12.9687 5.24041 12.5994 5.36115 12.3046 5.60263C12.0134 5.84411 11.7951 6.16903 11.6495 6.57741C11.5074 6.98224 11.4364 7.43501 11.4364 7.93572C11.4364 8.43288 11.5074 8.88388 11.6495 9.28871C11.7951 9.69354 12.0134 10.0167 12.3046 10.2582C12.5994 10.4961 12.9687 10.6151 13.4126 10.6151ZM18.959 12V3.81818H20.8287V5.18182H20.9139C21.0631 4.70952 21.3188 4.34553 21.681 4.08984C22.0467 3.83061 22.464 3.70099 22.9328 3.70099C23.0393 3.70099 23.1582 3.70632 23.2896 3.71697C23.4246 3.72408 23.5364 3.73651 23.6252 3.75426V5.52805C23.5435 5.49964 23.4139 5.47479 23.2364 5.45348C23.0624 5.42862 22.8937 5.41619 22.7303 5.41619C22.3788 5.41619 22.0627 5.49254 21.7822 5.64524C21.5052 5.79439 21.2868 6.00213 21.127 6.26847C20.9672 6.5348 20.8873 6.84197 20.8873 7.18999V12H18.959ZM29.4313 3.81818V5.30966H24.7278V3.81818H29.4313ZM25.8891 1.85795H27.8173V9.53906C27.8173 9.7983 27.8564 9.99716 27.9345 10.1357C28.0162 10.2706 28.1227 10.3629 28.2541 10.4126C28.3855 10.4624 28.5311 10.4872 28.6909 10.4872C28.8117 10.4872 28.9217 10.4783 29.0212 10.4606C29.1242 10.4428 29.2023 10.4268 29.2555 10.4126L29.5805 11.9201C29.4775 11.9556 29.3301 11.9947 29.1384 12.0373C28.9502 12.0799 28.7193 12.1048 28.4459 12.1119C27.9629 12.1261 27.5279 12.0533 27.1408 11.8935C26.7538 11.7301 26.4466 11.478 26.2193 11.1371C25.9956 10.7962 25.8855 10.37 25.8891 9.85866V1.85795ZM34.525 12.1598C33.726 12.1598 33.0335 11.984 32.4476 11.6325C31.8616 11.2809 31.4071 10.7891 31.0839 10.157C30.7643 9.52486 30.6045 8.78622 30.6045 7.94105C30.6045 7.09588 30.7643 6.35547 31.0839 5.71982C31.4071 5.08416 31.8616 4.59055 32.4476 4.23899C33.0335 3.88743 33.726 3.71165 34.525 3.71165C35.324 3.71165 36.0165 3.88743 36.6024 4.23899C37.1883 4.59055 37.6411 5.08416 37.9607 5.71982C38.2839 6.35547 38.4454 7.09588 38.4454 7.94105C38.4454 8.78622 38.2839 9.52486 37.9607 10.157C37.6411 10.7891 37.1883 11.2809 36.6024 11.6325C36.0165 11.984 35.324 12.1598 34.525 12.1598ZM34.5356 10.6151C34.9689 10.6151 35.3311 10.4961 35.6223 10.2582C35.9135 10.0167 36.1301 9.69354 36.2722 9.28871C36.4177 8.88388 36.4905 8.43288 36.4905 7.93572C36.4905 7.43501 36.4177 6.98224 36.2722 6.57741C36.1301 6.16903 35.9135 5.84411 35.6223 5.60263C35.3311 5.36115 34.9689 5.24041 34.5356 5.24041C34.0918 5.24041 33.7224 5.36115 33.4277 5.60263C33.1365 5.84411 32.9181 6.16903 32.7725 6.57741C32.6305 6.98224 32.5594 7.43501 32.5594 7.93572C32.5594 8.43288 32.6305 8.88388 32.7725 9.28871C32.9181 9.69354 33.1365 10.0167 33.4277 10.2582C33.7224 10.4961 34.0918 10.6151 34.5356 10.6151ZM44.2263 3.81818V5.30966H39.3896V3.81818H44.2263ZM40.5988 12V3.04581C40.5988 2.49538 40.7124 2.03729 40.9397 1.67152C41.1705 1.30575 41.4794 1.03232 41.8665 0.851207C42.2536 0.670099 42.6833 0.579545 43.1556 0.579545C43.4894 0.579545 43.7859 0.606178 44.0451 0.659446C44.3044 0.712713 44.4961 0.760653 44.6204 0.803267L44.2369 2.29474C44.1552 2.26989 44.0522 2.24503 43.928 2.22017C43.8037 2.19176 43.6652 2.17756 43.5125 2.17756C43.1538 2.17756 42.8999 2.26456 42.7508 2.43857C42.6052 2.60902 42.5324 2.85405 42.5324 3.17365V12H40.5988ZM47.6646 1.09091V12H45.7364V1.09091H47.6646ZM49.6475 12V3.81818H51.5758V12H49.6475ZM50.617 2.65696C50.308 2.65696 50.0435 2.55575 49.8233 2.35334C49.6067 2.14737 49.4984 1.90057 49.4984 1.61293C49.4984 1.32173 49.6084 1.07493 49.8286 0.872513C50.0488 0.666548 50.3116 0.563565 50.617 0.563565C50.9224 0.563565 51.1834 0.666548 51.4 0.872513C51.6202 1.07493 51.7302 1.32173 51.7302 1.61293C51.7302 1.90057 51.6202 2.14737 51.4 2.35334C51.1834 2.55575 50.9224 2.65696 50.617 2.65696ZM57.1275 12.1598C56.3285 12.1598 55.6361 11.984 55.0501 11.6325C54.4642 11.2809 54.0096 10.7891 53.6865 10.157C53.3669 9.52486 53.2071 8.78622 53.2071 7.94105C53.2071 7.09588 53.3669 6.35547 53.6865 5.71982C54.0096 5.08416 54.4642 4.59055 55.0501 4.23899C55.6361 3.88743 56.3285 3.71165 57.1275 3.71165C57.9265 3.71165 58.619 3.88743 59.2049 4.23899C59.7909 4.59055 60.2437 5.08416 60.5633 5.71982C60.8864 6.35547 61.048 7.09588 61.048 7.94105C61.048 8.78622 60.8864 9.52486 60.5633 10.157C60.2437 10.7891 59.7909 11.2809 59.2049 11.6325C58.619 11.984 57.9265 12.1598 57.1275 12.1598ZM57.1382 10.6151C57.5714 10.6151 57.9336 10.4961 58.2248 10.2582C58.516 10.0167 58.7326 9.69354 58.8747 9.28871C59.0203 8.88388 59.0931 8.43288 59.0931 7.93572C59.0931 7.43501 59.0203 6.98224 58.8747 6.57741C58.7326 6.16903 58.516 5.84411 58.2248 5.60263C57.9336 5.36115 57.5714 5.24041 57.1382 5.24041C56.6943 5.24041 56.325 5.36115 56.0302 5.60263C55.739 5.84411 55.5206 6.16903 55.375 6.57741C55.233 6.98224 55.162 7.43501 55.162 7.93572C55.162 8.43288 55.233 8.88388 55.375 9.28871C55.5206 9.69354 55.739 10.0167 56.0302 10.2582C56.325 10.4961 56.6943 10.6151 57.1382 10.6151Z" fill="white"/>
</svg>
